HIERARCHY
ROOT Hips
{
 OFFSET 0.000000 0.000000 0.000000
 CHANNELS 6 Xposition Yposition Zposition Yrotation Xrotation Zrotation
 JOINT Chest
 {
  OFFSET 0.000000 10.080317 -0.001081
  CHANNELS 3 Yrotation Xrotation Zrotation
  JOINT Chest2
  {
   OFFSET 0.000000 11.096852 0.001963
   CHANNELS 3 Yrotation Xrotation Zrotation
   JOINT Chest3
   {
    OFFSET 0.000000 10.026525 0.000000
    CHANNELS 3 Yrotation Xrotation Zrotation
    JOINT Chest4
    {
     OFFSET 0.000000 10.026525 0.000000
     CHANNELS 3 Yrotation Xrotation Zrotation
     JOINT Neck
     {
      OFFSET 0.000000 14.108171 0.000000
      CHANNELS 3 Yrotation Xrotation Zrotation
      JOINT Head
      {
       OFFSET 0.000000 9.333493 0.004668
       CHANNELS 3 Yrotation Xrotation Zrotation
       End Site
       {
        OFFSET 0.000000 17.851786 0.002438
       }
      }
     }
     JOINT RightCollar
     {
      OFFSET -3.071622 7.873185 0.000000
      CHANNELS 3 Yrotation Xrotation Zrotation
      JOINT RightShoulder
      {
       OFFSET -14.378659 0.000000 0.000000
       CHANNELS 3 Yrotation Xrotation Zrotation
       JOINT RightElbow
       {
        OFFSET -30.778728 0.000000 0.000000
        CHANNELS 3 Yrotation Xrotation Zrotation
        JOINT RightWrist
        {
         OFFSET -25.164217 0.000000 0.000000
         CHANNELS 3 Yrotation Xrotation Zrotation
         End Site
         {
          OFFSET -18.796788 0.000000 0.000000
         }
        }
       }
      }
     }
     JOINT LeftCollar
     {
      OFFSET 3.071622 7.873185 0.000000
      CHANNELS 3 Yrotation Xrotation Zrotation
      JOINT LeftShoulder
      {
       OFFSET 14.378659 0.000000 0.000000
       CHANNELS 3 Yrotation Xrotation Zrotation
       JOINT LeftElbow
       {
        OFFSET 30.778728 0.000000 0.000000
        CHANNELS 3 Yrotation Xrotation Zrotation
        JOINT LeftWrist
        {
         OFFSET 25.164217 0.000000 0.000000
         CHANNELS 3 Yrotation Xrotation Zrotation
         End Site
         {
          OFFSET 18.796788 0.000000 0.000000
         }
        }
       }
      }
     }
    }
   }
  }
 }
 JOINT RightHip
 {
  OFFSET -8.194923 0.005295 0.000540
  CHANNELS 3 Yrotation Xrotation Zrotation
  JOINT RightKnee
  {
   OFFSET 0.000000 -42.473320 -0.000511
   CHANNELS 3 Yrotation Xrotation Zrotation
   JOINT RightAnkle
   {
    OFFSET 0.000000 -41.474259 -0.000865
    CHANNELS 3 Yrotation Xrotation Zrotation
    JOINT RightToe
    {
     OFFSET 0.000000 -7.354994 16.712725
     CHANNELS 3 Yrotation Xrotation Zrotation
     End Site
     {
      OFFSET 0.000000 -1.553903 6.764158
     }
    }
   }
  }
 }
 JOINT LeftHip
 {
  OFFSET 8.194923 0.005295 0.000540
  CHANNELS 3 Yrotation Xrotation Zrotation
  JOINT LeftKnee
  {
   OFFSET 0.000000 -42.473320 -0.000511
   CHANNELS 3 Yrotation Xrotation Zrotation
   JOINT LeftAnkle
   {
    OFFSET 0.000000 -41.474259 -0.000865
    CHANNELS 3 Yrotation Xrotation Zrotation
    JOINT LeftToe
    {
     OFFSET 0.000000 -7.354994 16.712725
     CHANNELS 3 Yrotation Xrotation Zrotation
     End Site
     {
      OFFSET 0.000000 -1.553903 6.764158
     }
    }
   }
  }
 }
}
MOTION
Frames: 10
Frame Time: 0.016667
0.000000 91.111157 0.000000 0.000000 -5.826342 0.000000 0.000000 11.116423 0.000000 0.000000 -5.290081 0.000000 0.000000 0.000000 0.000000 0.000000 0.000000 0.000000 0.000000 12.665069 0.000000 0.000000 0.575450 0.000000 0.000000 0.000000 0.000000 0.000000 0.000000 0.000000 2.337306 0.000000 0.000000 -2.337306 0.000000 0.000000 0.000000 0.000000 0.000000 0.000000 0.000000 0.000000 -2.337306 0.000000 0.000000 2.337306 0.000000 0.000000 0.000000 8.578828 0.000000 0.000000 1.905768 0.000000 0.000000 -4.658254 0.000000 0.000000 0.000000 0.000000 0.000000 8.578828 0.000000 0.000000 1.905768 0.000000 0.000000 -4.658254 0.000000 0.000000 0.000000 0.000000
-47.636511 92.643370 75.191291 3.225194 -3.404200 0.275474 -0.663862 1.472618 -0.421178 -0.306893 0.653873 -0.207231 -0.306893 0.653873 -0.207231 -0.229946 0.490509 -0.155093 -0.534116 20.359969 1.677445 -1.478109 1.656604 3.214704 -3.574308 -1.048915 9.299029 -4.099629 -2.804410 70.178778 20.179269 17.381113 12.647419 -3.539599 1.550545 -9.217347 -4.946382 -0.822144 -5.089948 -4.834239 -9.452078 -72.759025 -17.392159 24.707095 -20.234729 4.199559 4.188902 15.347298 -7.462361 7.221020 -5.171817 -3.547003 -0.678077 0.524736 -3.983985 -2.568637 3.696461 -0.053309 0.073043 -0.058413 7.973811 8.413363 5.129997 -1.805069 0.487579 0.225891 0.439024 -4.542200 -5.320962 0.054186 0.009615 0.019216
-47.654441 92.645063 75.157706 3.159341 -3.378445 0.258171 -0.666307 1.476445 -0.417182 -0.308482 0.655700 -0.205423 -0.308482 0.655700 -0.205423 -0.231138 0.491879 -0.153735 -0.533651 20.403175 1.705727 -1.484593 1.737577 3.265142 -3.564988 -1.007877 9.322671 -4.131257 -2.770578 70.152811 20.102091 17.433186 12.615996 -3.537959 1.566176 -9.206407 -4.926348 -0.812870 -5.073695 -4.787776 -9.460475 -72.688520 -17.298460 24.659644 -20.148332 4.202955 4.196864 15.349726 -7.424912 7.156759 -5.138288 -3.513454 -0.658509 0.519821 -3.973951 -2.554196 3.694433 -0.050997 0.071768 -0.059223 8.023455 8.381491 5.149071 -1.788834 0.462090 0.237940 0.445684 -4.517509 -5.334448 0.052764 0.007934 0.017590
-47.670085 92.646044 75.122074 3.092822 -3.348531 0.243052 -0.660102 1.482542 -0.413472 -0.306174 0.658303 -0.203183 -0.306174 0.658303 -0.203183 -0.229409 0.493829 -0.152056 -0.539239 20.448350 1.735275 -1.502382 1.822445 3.319643 -3.592035 -0.969636 9.338103 -4.176698 -2.734753 70.164200 20.028404 17.504912 12.565523 -3.537677 1.569359 -9.192939 -4.934292 -0.790524 -5.061456 -4.722751 -9.469610 -72.609714 -17.211642 24.606876 -20.069128 4.197119 4.199024 15.345314 -7.416991 7.084324 -5.113429 -3.461367 -0.639927 0.525498 -3.968532 -2.536712 3.689031 -0.048782 0.070188 -0.062246 8.062874 8.339552 5.164448 -1.775632 0.449637 0.245355 0.459324 -4.499592 -5.341827 0.051349 0.007218 0.014610
-47.686093 92.648262 75.082909 3.031527 -3.326158 0.225544 -0.661638 1.486271 -0.411655 -0.306718 0.660794 -0.200824 -0.306718 0.660794 -0.200824 -0.229819 0.495696 -0.150285 -0.532935 20.487460 1.761493 -1.497678 1.895583 3.364626 -3.600098 -0.913599 9.355665 -4.208789 -2.692833 70.170173 19.925247 17.522562 12.489221 -3.539470 1.565110 -9.181275 -4.919876 -0.773431 -5.046584 -4.664838 -9.450485 -72.530762 -17.113338 24.546917 -19.986195 4.191454 4.199727 15.358303 -7.414330 7.017562 -5.090771 -3.405605 -0.620432 0.534842 -3.957045 -2.516865 3.678100 -0.046562 0.066306 -0.060826 8.094724 8.298805 5.179597 -1.767417 0.443762 0.257353 0.480512 -4.480919 -5.348645 0.049244 0.005987 0.010083
-47.701510 92.650560 75.040405 2.969346 -3.306060 0.208985 -0.656137 1.495495 -0.405290 -0.305701 0.665148 -0.196873 -0.305701 0.665148 -0.196873 -0.229059 0.498960 -0.147320 -0.538742 20.514730 1.785300 -1.514589 1.947072 3.409092 -3.674895 -0.853382 9.371059 -4.182334 -2.642770 70.175210 19.825387 17.532765 12.411461 -3.543214 1.555241 -9.182054 -4.924972 -0.742680 -5.034358 -4.577536 -9.436913 -72.469399 -17.014420 24.489539 -19.889134 4.179167 4.198720 15.356617 -7.396035 6.951328 -5.066885 -3.367163 -0.599418 0.543814 -3.947071 -2.496564 3.668596 -0.044835 0.062705 -0.060848 8.122350 8.255867 5.204145 -1.757737 0.443419 0.248060 0.492542 -4.463290 -5.345020 0.049739 0.004708 0.007280
-47.717844 92.654281 74.990694 2.906538 -3.287145 0.201760 -0.652395 1.505123 -0.393503 -0.304945 0.670170 -0.191987 -0.304945 0.670170 -0.191987 -0.228496 0.502724 -0.143654 -0.540849 20.542570 1.800795 -1.522257 1.999268 3.437310 -3.715549 -0.781779 9.371967 -4.192529 -2.616211 70.174790 19.706611 17.549352 12.326172 -3.538577 1.543856 -9.178885 -4.922165 -0.722869 -5.027350 -4.504198 -9.419240 -72.408392 -16.913984 24.429306 -19.793523 4.182022 4.181695 15.332591 -7.367350 6.867538 -5.040050 -3.338432 -0.551914 0.531285 -3.934476 -2.486931 3.666396 -0.041802 0.061346 -0.058515 8.137747 8.228356 5.213747 -1.734911 0.408899 0.244994 0.511115 -4.419375 -5.342244 0.049633 0.001281 0.004014
-47.736322 92.658644 74.938081 2.843472 -3.274619 0.191651 -0.652288 1.521959 -0.384687 -0.306449 0.677791 -0.187984 -0.306449 0.677791 -0.187984 -0.229626 0.508438 -0.140646 -0.538668 20.572948 1.817898 -1.522521 2.056084 3.467109 -3.697774 -0.715238 9.379237 -4.249328 -2.599406 70.176145 19.569147 17.556484 12.251398 -3.524248 1.552759 -9.181698 -4.899667 -0.677463 -5.001967 -4.425691 -9.408041 -72.355265 -16.828909 24.369597 -19.714797 4.172429 4.174051 15.325398 -7.356232 6.781097 -5.010730 -3.306301 -0.492463 0.518293 -3.913266 -2.478934 3.664555 -0.039289 0.057110 -0.058127 8.168707 8.188010 5.219590 -1.706217 0.404518 0.262631 0.509486 -4.385806 -5.350669 0.048572 -0.003645 0.000998
-47.759640 92.662528 74.881778 2.776716 -3.266262 0.182580 -0.648701 1.541750 -0.372122 -0.304328 0.686902 -0.183891 -0.304328 0.686902 -0.183891 -0.228037 0.515268 -0.137574 -0.545880 20.605314 1.835965 -1.540079 2.116936 3.501412 -3.718035 -0.661597 9.370239 -4.288078 -2.560801 70.198590 19.450948 17.580081 12.160606 -3.529067 1.552116 -9.165003 -4.893774 -0.637620 -4.981111 -4.368991 -9.382237 -72.309691 -16.739392 24.312354 -19.631392 4.161942 4.191897 15.312846 -7.345852 6.704174 -4.981493 -3.261556 -0.450145 0.507645 -3.905202 -2.461933 3.660255 -0.037560 0.055626 -0.059174 8.219231 8.162625 5.245004 -1.693313 0.369801 0.251855 0.511753 -4.334879 -5.353290 0.047525 -0.008297 0.002731
-47.786635 92.665924 74.821954 2.700290 -3.256648 0.178138 -0.648223 1.564646 -0.359880 -0.304129 0.696796 -0.180220 -0.304129 0.696796 -0.180220 -0.227888 0.522687 -0.134817 -0.553695 20.639382 1.859263 -1.560218 2.181129 3.545351 -3.693985 -0.606575 9.378866 -4.356017 -2.529812 70.199622 19.356397 17.612503 12.084781 -3.535007 1.552870 -9.146009 -4.889739 -0.595146 -4.964635 -4.323592 -9.342308 -72.261514 -16.670077 24.237383 -19.563473 4.163595 4.175317 15.320910 -7.352250 6.625942 -4.956473 -3.188608 -0.420872 0.496631 -3.882453 -2.436346 3.652943 -0.035783 0.055258 -0.060260 8.258625 8.139415 5.253442 -1.665464 0.331118 0.267623 0.524792 -4.280632 -5.372715 0.046997 -0.012377 0.003856
